<?xml version="1.0" encoding="UTF-8"?><svg id="Layer_2" xmlns="http://www.w3.org/2000/svg" xmlns:xlink="http://www.w3.org/1999/xlink" viewBox="0 0 2107.95 462"><defs><style>.cls-1{clip-path:url(#clippath);}.cls-2{fill:none;}.cls-2,.cls-3,.cls-4{stroke-width:0px;}.cls-5{stroke:#fff;stroke-miterlimit:10;stroke-width:3px;}.cls-5,.cls-4{fill:#fff;}.cls-3{fill:#6102db;}</style><clipPath id="clippath"><rect class="cls-2" width="462" height="462"/></clipPath></defs><g id="Layer_3"><g class="cls-1"><rect class="cls-3" width="462" height="462" rx="120.55" ry="120.55"/><path class="cls-4" d="M212.12,220.12h-121.25c-2.76,0-5-2.24-5-5v-30.03c0-2.76,2.24-5,5-5h87.53v-86.22c0-2.76,2.24-5,5-5h28.72c2.76,0,5,2.24,5,5v121.25c0,2.76-2.24,5-5,5Z"/><path class="cls-4" d="M249.88,247.88h121.25c2.76,0,5,2.24,5,5v30.03c0,2.76-2.24,5-5,5h-87.53v86.22c0,2.76-2.24,5-5,5h-28.72c-2.76,0-5-2.24-5-5v-121.25c0-2.76,2.24-5,5-5Z"/></g><path class="cls-5" d="M1915.63,322.71c-3.11,9.33-11.83,15.62-21.65,15.62s-18.52-6.28-21.64-15.59l-57.78-172.71c-.87-2.59,1.06-5.27,3.79-5.27h23.27c1.72,0,3.24,1.09,3.79,2.72l44.69,132.33c1.37,4.07,7.14,4.06,8.5-.02l39.76-119.15c3.17-9.49,12.04-15.89,22.04-15.89s18.85,6.39,22.03,15.87l39.91,119.13c1.37,4.08,7.14,4.08,8.5,0l44.14-132.25c.54-1.63,2.07-2.73,3.79-2.73h23.65c2.73,0,4.66,2.68,3.79,5.27l-57.75,172.6c-3.14,9.38-11.91,15.7-21.79,15.7s-18.64-6.31-21.79-15.68l-40.54-120.68c-1.37-4.08-7.14-4.07-8.5,0l-40.24,120.73Z"/><path class="cls-5" d="M1547.1,144.75h24.47c2.21,0,4,1.79,4,4v185.58c0,2.21-1.79,4-4,4h-24.47c-2.21,0-4-1.79-4-4v-185.58c0-2.21,1.79-4,4-4Z"/><path class="cls-5" d="M1448.34,318.76c-4.26,11.75-15.41,19.57-27.89,19.57s-23.62-7.81-27.88-19.54l-62-170.39c-.71-1.96.74-4.03,2.82-4.03h28.22c1.26,0,2.39.79,2.82,1.98l53.7,148.1c.75,2.08,3.7,2.08,4.45,0l53.7-148.1c.43-1.19,1.56-1.98,2.82-1.98h28.23c2.08,0,3.53,2.07,2.82,4.02l-61.81,170.37Z"/><path class="cls-5" d="M1220.37,343.36c-17.79,0-34.03-4.58-48.72-13.74-14.56-9.16-26.23-21.42-34.99-36.78-8.63-15.49-12.95-32.58-12.95-51.3,0-14.2,2.51-27.42,7.54-39.68,5.02-12.39,11.92-23.23,20.68-32.52,8.9-9.42,19.21-16.78,30.93-22.07,11.73-5.29,24.23-7.94,37.51-7.94,17.78,0,33.96,4.58,48.52,13.74,14.7,9.16,26.36,21.49,34.99,36.97,8.77,15.49,13.15,32.65,13.15,51.49,0,14.07-2.51,27.23-7.54,39.49-5.03,12.26-11.99,23.1-20.88,32.52-8.76,9.29-19.01,16.58-30.74,21.87-11.6,5.29-24.1,7.94-37.5,7.94ZM1220.37,310.84c12.11,0,23-3.16,32.67-9.49,9.8-6.45,17.46-14.9,23.01-25.36,5.67-10.58,8.5-22.07,8.5-34.46s-2.9-24.26-8.7-34.84c-5.67-10.58-13.34-19.04-23-25.36-9.67-6.32-20.49-9.49-32.48-9.49s-23.01,3.23-32.67,9.68c-9.67,6.32-17.34,14.78-23.01,25.36-5.67,10.58-8.5,22.13-8.5,34.65s2.9,24.65,8.7,35.23c5.8,10.45,13.59,18.78,23.39,24.97,9.79,6.07,20.49,9.1,32.09,9.1Z"/><path class="cls-5" d="M1011.25,338.33c-2.18,0-3.94-1.76-3.94-3.94v-157.11c0-17.96,14.54-32.52,32.47-32.52h64.5c2.18,0,3.94,1.76,3.94,3.94v22.12c0,2.18-1.76,3.94-3.94,3.94h-51.18c-7.36,0-13.32,5.98-13.32,13.35v146.28c0,2.18-1.76,3.94-3.94,3.94h-24.59Z"/><path class="cls-5" d="M902.54,340.51c-17.31,4.1-34.16,3.38-50.57-2.14-16.28-5.56-30.46-14.8-42.53-27.72-11.97-13.08-20.11-28.72-24.43-46.93-3.27-13.81-3.88-27.26-1.81-40.35,2.04-13.21,6.25-25.35,12.63-36.41,6.48-11.22,14.82-20.75,25.01-28.6,10.19-7.85,21.75-13.31,34.66-16.37,14.17-3.36,27.84-3.54,40.99-.56,13.25,2.83,25.28,8.33,36.1,16.52,10.94,8.15,20.07,18.45,27.39,30.91,4.44,7.41,8,15.39,10.69,23.92,3.14,10.01-3.65,19.97-13.84,22.38l-128.18,30.36c-3.9.92-5.88,5.26-4.06,8.82,3.7,7.27,8.41,13.62,14.13,19.03,7.48,6.98,16.07,11.91,25.75,14.79,9.81,2.85,20,3.09,30.57.72,11.29-2.67,20.82-7.98,28.61-15.93,6.79-7.06,11.84-15.44,15.17-25.13.86-2.52,3.18-4.24,5.84-4.25l21.66-.05c4.04-.01,7.04,3.82,5.98,7.73-4.17,15.35-11.68,29.14-22.53,41.38-12.68,14.14-28.42,23.44-47.23,27.9ZM814.11,240.64l122.65-29.05c-3.5-10.31-8.7-17.17-16.52-24.47-7.85-7.42-16.85-12.72-27.01-15.88-10.15-3.17-20.5-3.5-31.03-1-10.53,2.5-19.58,7.36-27.14,14.59-7.56,7.23-13.18,15.92-16.87,26.08-3.59,10-5.26,18.62-4.08,29.75Z"/><path class="cls-5" d="M644.66,342.1c-17.79,0-34.03-4.58-48.72-13.74-14.56-9.16-26.23-21.42-34.99-36.78-8.64-15.49-12.95-32.58-12.95-51.3,0-14.2,2.51-27.42,7.54-39.68,5.03-12.39,11.92-23.23,20.68-32.52,8.89-9.42,19.2-16.78,30.93-22.07,11.73-5.29,24.23-7.94,37.5-7.94,17.79,0,33.96,4.58,48.52,13.74,14.69,9.16,26.36,21.49,34.99,36.97,8.76,15.49,13.15,32.65,13.15,51.49,0,14.07-2.51,27.23-7.54,39.49-5.03,12.26-11.99,23.1-20.88,32.52-8.76,9.29-19.01,16.58-30.74,21.87-11.6,5.29-24.1,7.94-37.51,7.94ZM644.66,309.58c12.11,0,23.01-3.16,32.67-9.49,9.79-6.45,17.46-14.9,23.01-25.36,5.67-10.58,8.51-22.07,8.51-34.46s-2.9-24.26-8.7-34.84c-5.67-10.58-13.34-19.03-23.01-25.36-9.67-6.32-20.49-9.49-32.48-9.49s-23.01,3.23-32.67,9.68c-9.67,6.32-17.33,14.78-23.01,25.36-5.67,10.58-8.51,22.13-8.51,34.65s2.9,24.65,8.7,35.23c5.8,10.45,13.6,18.78,23.39,24.97,9.79,6.07,20.49,9.1,32.09,9.1Z"/><path class="cls-5" d="M718.94,138.07h24.5c2.2,0,3.99,1.78,4,3.99l.54,198.93c0,2.21-1.79,4.01-4,4.01h-25.32c-2.21,0-4-1.79-4-4.01l.27-198.93c0-2.21,1.79-3.99,4-3.99Z"/><path class="cls-5" d="M1541.28,98.03c0-11.06,8.95-20.03,20-20.03s19.99,8.97,19.99,20.03-8.95,20.03-19.99,20.03-20-8.97-20-20.03Z"/><path class="cls-5" d="M1730.85,341.92c-17.31,4.1-34.16,3.38-50.57-2.14-16.28-5.56-30.46-14.8-42.53-27.72-11.97-13.08-20.11-28.72-24.43-46.93-3.27-13.81-3.88-27.26-1.81-40.35,2.04-13.21,6.25-25.35,12.63-36.41,6.48-11.22,14.82-20.75,25.01-28.6,10.19-7.85,21.75-13.31,34.66-16.37,14.17-3.36,27.84-3.54,40.99-.56,13.25,2.83,25.28,8.33,36.1,16.52,10.94,8.15,20.07,18.45,27.39,30.91,4.44,7.41,8,15.39,10.69,23.92,3.14,10.01-3.65,19.97-13.84,22.38l-128.18,30.36c-3.9.92-5.88,5.26-4.06,8.82,3.7,7.27,8.41,13.62,14.13,19.03,7.48,6.98,16.07,11.91,25.75,14.79,9.81,2.85,20,3.09,30.57.72,11.29-2.67,20.82-7.98,28.61-15.93,6.79-7.06,11.84-15.44,15.17-25.13.86-2.52,3.18-4.24,5.84-4.25l21.66-.05c4.04-.01,7.04,3.82,5.98,7.73-4.17,15.35-11.68,29.14-22.53,41.38-12.68,14.14-28.42,23.44-47.23,27.9ZM1642.42,242.05l122.65-29.05c-3.5-10.31-8.7-17.17-16.52-24.47-7.85-7.42-16.85-12.72-27.01-15.88-10.15-3.17-20.5-3.5-31.03-1s-19.58,7.36-27.14,14.59c-7.56,7.23-13.18,15.92-16.87,26.08-3.59,10-5.26,18.62-4.08,29.75Z"/></g></svg>