<svg xmlns="http://www.w3.org/2000/svg" fill="none" viewBox="0 0 263 76">
  <path fill="#fff" d="M237.5 50.5H225v-25h12.5V13H250v12.5h12.5V38h-25v12.5Zm0 12.5V50.5h25V63h-25ZM200 50.5V63h-12.5v12.5H175V13h25v12.5h-12.5v25H200Zm12.5 0H200v-25h12.5v25Zm-75 0H125V13h12.5v37.5Zm25 0H150V13h12.5v37.5Zm-12.5 0V63h-12.5V50.5H150Zm-25 25V63h12.5v12.5H125Zm-25-25H87.5V.5H100V13h12.5v12.5H100v25Zm0 12.5V50.5h12.5V63H100ZM37.5 38V25.5H75V38H37.5Z"/>
  <path fill="#00FF85" d="M12.5 63H0V13h25v12.5H12.5V63Z"/>
</svg>
