<svg width="213" height="76" viewBox="0 0 213 76" fill="none" xmlns="http://www.w3.org/2000/svg">
<path d="M187.5 50.5H175V25.5H187.5V13H200V25.5H212.5V38H187.5V50.5ZM187.5 63V50.5H212.5V63H187.5Z" fill="white"/>
<path d="M150 50.5V63H137.5V75.5H125V13H150V25.5H137.5V50.5H150ZM162.5 50.5H150V25.5H162.5V50.5Z" fill="white"/>
<path d="M87.5 50.5H75V13H87.5V50.5ZM112.5 50.5H100V13H112.5V50.5ZM100 50.5V63H87.5V50.5H100ZM75 75.5V63H87.5V75.5H75Z" fill="white"/>
<path d="M50 50.5H37.5V0.5H50V13H62.5V25.5H50V50.5ZM50 63V50.5H62.5V63H50Z" fill="white"/>
<path d="M12.5 63H0V13H25V25.5H12.5V63Z" fill="#00FF85"/>
</svg>
