<svg width="162" height="41" viewBox="0 0 162 41" fill="none" xmlns="http://www.w3.org/2000/svg">
<path d="M17.17 30.145C15.64 31.015 13.555 31.45 10.915 31.45C7.465 31.45 4.81 30.625 2.95 28.975C1.09 27.295 0.16 24.79 0.16 21.46V0.849999H10.33V7.735H15.37V15.16H10.33V21.37C10.33 22.12 10.525 22.705 10.915 23.125C11.305 23.545 11.815 23.755 12.445 23.755C13.315 23.755 14.08 23.53 14.74 23.08L17.17 30.145ZM46.6278 6.385V26.095C46.6278 30.775 45.3228 34.285 42.7128 36.625C40.1328 38.995 36.4728 40.18 31.7328 40.18C29.3028 40.18 27.0228 39.91 24.8928 39.37C22.7928 38.86 20.9928 38.11 19.4928 37.12L22.9128 30.19C23.8728 30.91 25.0728 31.495 26.5128 31.945C27.9828 32.395 29.3778 32.62 30.6978 32.62C32.7078 32.62 34.1628 32.185 35.0628 31.315C35.9928 30.445 36.4578 29.17 36.4578 27.49V27.31C34.6878 28.87 32.5278 29.65 29.9778 29.65C26.8578 29.65 24.3528 28.705 22.4628 26.815C20.5728 24.895 19.6278 22.015 19.6278 18.175V6.385H29.7978V16.42C29.7978 18.1 30.0678 19.3 30.6078 20.02C31.1478 20.74 31.9428 21.1 32.9928 21.1C33.9828 21.1 34.8078 20.71 35.4678 19.93C36.1278 19.12 36.4578 17.86 36.4578 16.15V6.385H46.6278ZM67.5637 5.935C69.7237 5.935 71.7037 6.46 73.5037 7.51C75.3337 8.53 76.7737 10.015 77.8237 11.965C78.9037 13.915 79.4437 16.165 79.4437 18.715C79.4437 21.265 78.9037 23.515 77.8237 25.465C76.7737 27.385 75.3337 28.87 73.5037 29.92C71.7037 30.94 69.7237 31.45 67.5637 31.45C64.8337 31.45 62.7487 30.745 61.3087 29.335V39.73H51.1387V6.385H60.8137V8.41C62.2837 6.76 64.5337 5.935 67.5637 5.935ZM65.1337 23.53C66.3037 23.53 67.2637 23.11 68.0137 22.27C68.7637 21.43 69.1387 20.245 69.1387 18.715C69.1387 17.185 68.7637 16 68.0137 15.16C67.2637 14.29 66.3037 13.855 65.1337 13.855C63.9637 13.855 63.0037 14.29 62.2537 15.16C61.5037 16 61.1287 17.185 61.1287 18.715C61.1287 20.245 61.5037 21.43 62.2537 22.27C63.0037 23.11 63.9637 23.53 65.1337 23.53ZM109.557 6.385V31H99.8825V28.66C98.9825 29.59 97.9325 30.295 96.7325 30.775C95.5325 31.225 94.2575 31.45 92.9075 31.45C89.7875 31.45 87.2825 30.505 85.3925 28.615C83.5025 26.695 82.5575 23.815 82.5575 19.975V6.385H92.7275V18.22C92.7275 19.9 92.9975 21.1 93.5375 21.82C94.0775 22.54 94.8725 22.9 95.9225 22.9C96.9125 22.9 97.7375 22.51 98.3975 21.73C99.0575 20.92 99.3875 19.66 99.3875 17.95V6.385H109.557ZM123.743 9.04C125.543 6.97 128.198 5.935 131.708 5.935V14.935C130.898 14.815 130.148 14.755 129.458 14.755C125.978 14.755 124.238 16.525 124.238 20.065V31H114.068V6.385H123.743V9.04ZM161.371 6.385V31H151.696V28.975C150.226 30.625 147.976 31.45 144.946 31.45C142.786 31.45 140.791 30.94 138.961 29.92C137.161 28.87 135.721 27.37 134.641 25.42C133.591 23.47 133.066 21.22 133.066 18.67C133.066 16.12 133.591 13.885 134.641 11.965C135.721 10.015 137.161 8.53 138.961 7.51C140.791 6.46 142.786 5.935 144.946 5.935C147.676 5.935 149.761 6.64 151.201 8.05V6.385H161.371ZM147.376 23.53C148.546 23.53 149.506 23.11 150.256 22.27C151.006 21.4 151.381 20.2 151.381 18.67C151.381 17.14 151.006 15.955 150.256 15.115C149.506 14.275 148.546 13.855 147.376 13.855C146.206 13.855 145.246 14.275 144.496 15.115C143.746 15.955 143.371 17.14 143.371 18.67C143.371 20.2 143.746 21.4 144.496 22.27C145.246 23.11 146.206 23.53 147.376 23.53Z" fill="#FFA800"/>
</svg>
