<svg width="166" height="80" viewBox="0 0 166 80" fill="none" xmlns="http://www.w3.org/2000/svg">
<path d="M19.17 43.145C17.64 44.015 15.555 44.45 12.915 44.45C9.465 44.45 6.81 43.625 4.95 41.975C3.09 40.295 2.16 37.79 2.16 34.46V13.85H12.33V20.735H17.37V28.16H12.33V34.37C12.33 35.12 12.525 35.705 12.915 36.125C13.305 36.545 13.815 36.755 14.445 36.755C15.315 36.755 16.08 36.53 16.74 36.08L19.17 43.145ZM48.6278 19.385V39.095C48.6278 43.775 47.3228 47.285 44.7128 49.625C42.1328 51.995 38.4728 53.18 33.7328 53.18C31.3028 53.18 29.0228 52.91 26.8928 52.37C24.7928 51.86 22.9928 51.11 21.4928 50.12L24.9128 43.19C25.8728 43.91 27.0728 44.495 28.5128 44.945C29.9828 45.395 31.3778 45.62 32.6978 45.62C34.7078 45.62 36.1628 45.185 37.0628 44.315C37.9928 43.445 38.4578 42.17 38.4578 40.49V40.31C36.6878 41.87 34.5278 42.65 31.9778 42.65C28.8578 42.65 26.3528 41.705 24.4628 39.815C22.5728 37.895 21.6278 35.015 21.6278 31.175V19.385H31.7978V29.42C31.7978 31.1 32.0678 32.3 32.6078 33.02C33.1478 33.74 33.9428 34.1 34.9928 34.1C35.9828 34.1 36.8078 33.71 37.4678 32.93C38.1278 32.12 38.4578 30.86 38.4578 29.15V19.385H48.6278ZM69.5637 18.935C71.7237 18.935 73.7037 19.46 75.5037 20.51C77.3337 21.53 78.7737 23.015 79.8237 24.965C80.9037 26.915 81.4437 29.165 81.4437 31.715C81.4437 34.265 80.9037 36.515 79.8237 38.465C78.7737 40.385 77.3337 41.87 75.5037 42.92C73.7037 43.94 71.7237 44.45 69.5637 44.45C66.8337 44.45 64.7487 43.745 63.3087 42.335V52.73H53.1387V19.385H62.8137V21.41C64.2837 19.76 66.5337 18.935 69.5637 18.935ZM67.1337 36.53C68.3037 36.53 69.2637 36.11 70.0137 35.27C70.7637 34.43 71.1387 33.245 71.1387 31.715C71.1387 30.185 70.7637 29 70.0137 28.16C69.2637 27.29 68.3037 26.855 67.1337 26.855C65.9637 26.855 65.0037 27.29 64.2537 28.16C63.5037 29 63.1287 30.185 63.1287 31.715C63.1287 33.245 63.5037 34.43 64.2537 35.27C65.0037 36.11 65.9637 36.53 67.1337 36.53ZM111.557 19.385V44H101.882V41.66C100.982 42.59 99.9325 43.295 98.7325 43.775C97.5325 44.225 96.2575 44.45 94.9075 44.45C91.7875 44.45 89.2825 43.505 87.3925 41.615C85.5025 39.695 84.5575 36.815 84.5575 32.975V19.385H94.7275V31.22C94.7275 32.9 94.9975 34.1 95.5375 34.82C96.0775 35.54 96.8725 35.9 97.9225 35.9C98.9125 35.9 99.7375 35.51 100.397 34.73C101.057 33.92 101.387 32.66 101.387 30.95V19.385H111.557ZM125.743 22.04C127.543 19.97 130.198 18.935 133.708 18.935V27.935C132.898 27.815 132.148 27.755 131.458 27.755C127.978 27.755 126.238 29.525 126.238 33.065V44H116.068V19.385H125.743V22.04ZM163.371 19.385V44H153.696V41.975C152.226 43.625 149.976 44.45 146.946 44.45C144.786 44.45 142.791 43.94 140.961 42.92C139.161 41.87 137.721 40.37 136.641 38.42C135.591 36.47 135.066 34.22 135.066 31.67C135.066 29.12 135.591 26.885 136.641 24.965C137.721 23.015 139.161 21.53 140.961 20.51C142.791 19.46 144.786 18.935 146.946 18.935C149.676 18.935 151.761 19.64 153.201 21.05V19.385H163.371ZM149.376 36.53C150.546 36.53 151.506 36.11 152.256 35.27C153.006 34.4 153.381 33.2 153.381 31.67C153.381 30.14 153.006 28.955 152.256 28.115C151.506 27.275 150.546 26.855 149.376 26.855C148.206 26.855 147.246 27.275 146.496 28.115C145.746 28.955 145.371 30.14 145.371 31.67C145.371 33.2 145.746 34.4 146.496 35.27C147.246 36.11 148.206 36.53 149.376 36.53Z" fill="#FFA800"/>
</svg>
